<?xml version="1.0" encoding="UTF-8" standalone="no"?>
<!DOCTYPE svg PUBLIC "-//W3C//DTD SVG 1.1//EN" "http://www.w3.org/Graphics/SVG/1.1/DTD/svg11.dtd">
<svg width="100%" height="100%" viewBox="0 0 512 512" version="1.1" xmlns="http://www.w3.org/2000/svg" xmlns:xlink="http://www.w3.org/1999/xlink" xml:space="preserve" xmlns:serif="http://www.serif.com/" style="fill-rule:evenodd;clip-rule:evenodd;stroke-linejoin:round;stroke-miterlimit:2;">
    <g transform="matrix(1,0,0,1,-32,0)">
        <path d="M265.4,233.4C252.9,245.9 252.9,266.15 265.4,278.65C277.9,291.15 298.15,291.15 310.65,278.65C323.15,266.15 323.15,245.88 310.65,233.4C298.1,220.9 277.9,220.9 265.4,233.4ZM288,0C146.6,0 32,114.6 32,256C32,397.4 146.6,512 288,512C429.4,512 544,397.4 544,256C544,114.6 429.4,0 288,0ZM414.1,156L348.13,300.4C345.411,306.369 338.352,313.42 332.38,316.16L188.08,382.13C171.42,389.739 154.27,372.583 161.89,355.93L227.86,211.63C230.579,205.646 237.641,198.58 243.64,195.85L387.94,129.88C404.6,122.3 421.8,139.4 414.1,156Z" style="fill:rgb(0,150,110);fill-rule:nonzero;"/>
    </g>
</svg>
